<?xml version="1.0" encoding="utf-8"?>
<!-- Generator: Adobe Illustrator 16.0.0, SVG Export Plug-In . SVG Version: 6.00 Build 0)  -->
<!DOCTYPE svg PUBLIC "-//W3C//DTD SVG 1.1//EN" "http://www.w3.org/Graphics/SVG/1.1/DTD/svg11.dtd">
<svg version="1.1" id="Layer_1" xmlns="http://www.w3.org/2000/svg" xmlns:xlink="http://www.w3.org/1999/xlink" x="0px" y="0px"
	 width="100px" height="100px" viewBox="0 0 100 100" enable-background="new 0 0 100 100" xml:space="preserve">
<g>
	<path fill-rule="evenodd" clip-rule="evenodd" fill="#00A69A" d="M-135.649,1520.625c-0.833-0.109-2.752-0.999-3.756-1.332
		c-7.209-2.391-14.619-2.046-21.35,1.393c-6.78,3.465-11.294,10.094-13.136,17.537c-3.81,15.392,4.066,36.12,12.7,46.909
		c5.634,7.041,14.572,12.877,24.507,10.103c1.088-0.304,3.114-1.297,4.069-1.065c0.43,0.104,1.262,0.513,1.772,0.681
		c0.608,0.201,1.424,0.414,2.048,0.578c4.284,1.12,9.205,0.612,13.088-1.091c2.49-1.092,4.574-2.47,6.294-3.941
		c1.054-0.901,1.556-1.436,2.604-2.42c0.871-0.815,1.592-1.841,2.414-2.785c2.78-3.192,5.606-8.438,7.499-12.954
		c6.362-15.182,9.237-36.382-2.48-47.875c-6.121-6.003-14.322-7.949-23.353-6.062c-1.391,0.291-2.828,0.666-4.086,1.112
		c-0.842,0.298-3.168,1.296-3.772,1.351c0.805-1.549,3.503-5.407,4.62-6.916c4.586-6.197,5.904-7.087,11.502-11.741
		c3.688-3.066,2.634-2.768-2.25-5.131c-3.652-1.768-5.588-3.391-7.629-0.067c-3.127,5.095-5.485,9.937-7.896,15.358
		L-135.649,1520.625z"/>
	<path fill-rule="evenodd" clip-rule="evenodd" fill="#00A69A" d="M-153.96,1490.344c-1.753,0.419-2.143,1.629-2.098,3.729
		c0.039,1.789,0.314,3.48,0.733,5.117c0.773,3.018,2.224,5.801,3.869,7.711l2.987,2.734c1.122,0.816,2.263,1.478,3.669,2.041
		c2.303,0.922,7.155,2.334,9.959,1.658c4.14-0.997,1.204-11.939-2.746-16.488c-1.598-1.839-3.539-3.57-6.648-4.817
		C-146.456,1491.138-151.314,1489.711-153.96,1490.344z"/>
</g>
<path fill-rule="evenodd" clip-rule="evenodd" fill="#00A69A" d="M3.298,11.611c1.507,5.345,1.1,5.103,3.517,10.618
	c2.158,4.925,3.986,6.464,5.333,9.036c0.478,0.108,1.307,1.455,1.722,1.96c0.623,0.757,1.087,1.243,1.75,1.946
	c0.414,0.44,0.497,0.459,1.013,0.926l2.877,2.832c0.803,0.151,0.128-0.046,0.703,0.365c0.497,0.357,0.187,0.233,0.862,0.54
	l0.676,0.65c0.352,0.242,0.482,0.324,0.915,0.651c4.57,3.45,8.73,4.719,13.69,6.6l3.945,0.96l3.496,0.583l0,1.251l-0.002,3.859
	l0.002,3.908l-0.002,3.86l0.002,3.907l-0.002,3.86l0.002,3.907l-0.002,3.86l0.002,3.907l-0.002,3.859l0.001,1.543h-3.508h-3.861
	l-3.908,0.046c-1.911,0.222-2.526,0.682-4.065,1.136c-0.197,0.272-0.966,0.755-1.31,1.005c-2.118,1.538-2.631,3.189-3.191,3.836
	c-0.473,1.814-0.954,2.617-0.804,4.853c0.334,0.827,0.654,1.169,1.599,1.498l3.888,0.055h3.908h3.86h3.908h3.86h3.909h3.86h3.909
	h3.859h3.909h3.858h3.909l3.861-0.077c0.921-0.244,1.307-0.678,1.624-1.476c0.153-2.244-0.317-3.03-0.804-4.853
	c-0.357-0.414-0.643-1.084-0.907-1.459c-1.619-2.302-3.219-2.857-3.595-3.382c-1.537-0.455-2.174-0.909-4.063-1.134l-3.908-0.048
	h-3.86h-3.509v-1.555l-0.001-3.848l0.001-3.92l-0.001-3.848l0.001-3.919l-0.001-3.849l0.001-3.919l-0.001-3.849l0.001-3.922
	l-0.001-3.845l0.005-1.227l3.492-0.605l3.933-0.96c4.41-1.625,3.831-1.239,8.389-3.374c2.909-1.363,5.815-3.786,7.291-4.53
	c0.272-0.573,2.7-2.289,3.391-3.042c1.113-1.214,1.64-1.398,3.253-3.355c0.434-0.525,1.312-2.048,1.899-2.17
	c0.603-1.076,1.507-2.248,2.258-3.375c3.613-5.417,6.144-12.578,7.059-19.167c0.22-1.595,0.379-3.194,0.426-4.836
	C97.709,0.71,97.548,1.102,96.165,0H79.958l-2.192,7.576l-0.079,0.693l1.444,0.017c1.055-0.001,3.925-0.135,4.755,0.18
	c1.05,0.397,1.825,1.816,0.949,3.058L63.668,32.686c-1.278,0.914-2.782,0.242-3.131-0.896c-0.511-1.665,2.959-12.521,3.337-15.167
	c-1.783-0.267-10.297,1.378-6.842-3.974L64.859,0H3.862C3.02,0.665,2.52,0.624,2.39,2.125c-0.082,0.952,0.025,2.462,0.1,3.441
	C2.65,7.684,2.958,9.575,3.298,11.611z"/>
</svg>
