<?xml version="1.0" encoding="utf-8"?>
<!-- Generator: Adobe Illustrator 16.0.0, SVG Export Plug-In . SVG Version: 6.00 Build 0)  -->
<!DOCTYPE svg PUBLIC "-//W3C//DTD SVG 1.1//EN" "http://www.w3.org/Graphics/SVG/1.1/DTD/svg11.dtd">
<svg version="1.1" id="Layer_1" xmlns="http://www.w3.org/2000/svg" xmlns:xlink="http://www.w3.org/1999/xlink" x="0px" y="0px"
	 width="100px" height="100px" viewBox="0 0 100 100" enable-background="new 0 0 100 100" xml:space="preserve">
<g>
	<path fill="#00A69A" d="M50.82,49.863l0.125,49.331c0.986-0.214,42.48-21.423,42.721-21.544c1.674-0.848,4.686-2.161,6.102-3.145
		l-0.146-49.36c-1.027,0.173-10.527,5.178-12.27,6.082C84.797,32.557,51.668,49.25,50.82,49.863z"/>
	<path fill="#00A69A" d="M18.929,70.457c0.248-0.707-0.246-1.185,0.417-1.424c0.588-0.214,0.889,0.31,0.871,0.86
		c-0.032,1.026-1.046,1.643-2.104,1.457c-2.151-0.373-2.572-3.047-1.067-4.463c3.297-3.099,8.111,2.46,4.183,5.879
		c-1.407,1.228-3.9,1.494-5.625,0.503c-2.944-1.688-3.589-6.979,0.634-9.17c3.992-2.069,8.452,0.65,8.445,4.871
		c-0.005,2.966-2.747,5.124-1.826,2.976c2.518-5.879-3.004-7.992-5.809-6.604c-4.308,2.131-1.317,9.066,2.908,6.76
		c1.76-0.956,1.971-3.899-0.052-4.536C17.034,66.664,16.636,71.119,18.929,70.457L18.929,70.457z M0.232,74.369
		c0.334,0.498,2.26,1.313,2.907,1.638l9.221,4.679c10.188,5.152,20.373,10.483,30.604,15.51c0.978,0.48,5.514,3.016,6.144,2.92
		l0.108-49.269l-17.722-9.137c-0.809-0.441-1.736-1.034-2.461-1.326l-0.31,15.932l-9.152-5.41l-0.14-15.335l-11.84-5.899
		c-1.079-0.582-6.706-3.512-7.187-3.43L0.232,74.369z"/>
	<path fill="#00A69A" d="M67.406,19.918c0.16,0.415,0.293,0.313,0.695,0.71c2.031,2.001,1.045,5.445-1.416,6.458
		c-1.545,0.639-3.264,0.583-4.713-0.166c-1.803-0.93-1.637-2.651-2.449-3.312c-2.955,1.121-18.271,8.642-22.417,10.589
		c-1.263,0.593-2.52,1.169-3.772,1.767c-1.264,0.6-2.717,1.103-3.778,1.848l0.494,0.345c0.19,0.107,0.346,0.164,0.521,0.253
		l16.141,8.22c0.756,0.404,1.405,0.733,2.133,1.105c1.156,0.592,1.047,0.679,2.189,0.092C63.84,41.281,77.098,34.692,89.75,28.079
		c1.396-0.729,2.838-1.424,4.293-2.179c1.133-0.588,3.498-1.623,4.338-2.277c-0.457-0.418-6.525-3.171-7.654-3.734
		c-0.969-0.484-11.178-5.507-11.729-5.468l-7.766,3.615C70.803,18.238,67.441,19.881,67.406,19.918z"/>
	<path fill="#00A69A" d="M1.656,23.652c1.111,0.408,2.922,1.485,4.082,2.103c3.607,1.918,8.971,4.543,12.237,6.412
		c2.434,1.391,1.806,1.168,4.159,0.016c1.376-0.673,2.781-1.385,4.173-2.142c7.803-4.244,16.998-8.491,24.78-12.693l12.34-6.342
		c0.859-0.441,3.447-1.575,4.088-2.152c-0.982-0.625-2.895-1.395-4.078-1.932L51.125,1.184c-1.673-0.787-1.296-0.289-4.249,0.989
		C43.393,3.678,38.13,6.314,34.51,8.005L9.884,19.623C9.111,19.992,2.181,23.017,1.656,23.652z"/>
	<path fill="#00A69A" stroke="#00A69A" stroke-width="0.1762" stroke-miterlimit="2.6131" d="M18.929,70.457
		c-2.293,0.662-1.895-3.793,0.975-2.893c2.022,0.637,1.812,3.58,0.052,4.538c-4.226,2.305-7.216-4.631-2.908-6.762
		c2.805-1.389,8.326,0.725,5.809,6.604c-0.921,2.148,1.821-0.011,1.826-2.974c0.008-4.222-4.453-6.942-8.445-4.874
		c-4.223,2.192-3.578,7.485-0.634,9.173c1.725,0.991,4.218,0.723,5.625-0.503c3.929-3.421-0.886-8.98-4.183-5.879
		c-1.505,1.416-1.084,4.088,1.067,4.463c1.057,0.186,2.07-0.433,2.104-1.459c0.019-0.552-0.283-1.072-0.871-0.86
		C18.683,69.272,19.177,69.75,18.929,70.457z"/>
	<path fill="#00A69A" stroke="#00A69A" stroke-width="0.1762" stroke-miterlimit="2.6131" d="M59.523,23.609
		c0.814,0.661,0.646,2.382,2.449,3.312c1.449,0.749,3.168,0.805,4.713,0.166c2.461-1.014,3.447-4.458,1.416-6.458
		c-0.402-0.397-0.535-0.296-0.695-0.71c-1.34,0.555-2.719,1.284-4.016,1.865C62.227,22.306,60.473,22.987,59.523,23.609z"/>
</g>
</svg>
