<?xml version="1.0" encoding="utf-8"?>
<!-- Generator: Adobe Illustrator 16.0.0, SVG Export Plug-In . SVG Version: 6.00 Build 0)  -->
<!DOCTYPE svg PUBLIC "-//W3C//DTD SVG 1.1//EN" "http://www.w3.org/Graphics/SVG/1.1/DTD/svg11.dtd">
<svg version="1.1" id="Layer_1" xmlns="http://www.w3.org/2000/svg" xmlns:xlink="http://www.w3.org/1999/xlink" x="0px" y="0px"
	 width="100px" height="100px" viewBox="0 0 100 100" enable-background="new 0 0 100 100" xml:space="preserve">
<path fill-rule="evenodd" clip-rule="evenodd" fill="#00A69A" d="M33.108,57.148c0,4.691,1.715,9.043,4.201,12.371
	c2.829,3.789,6.806,6.537,11.294,8.039c3.064,1.027,6.276,0.75,6.276,2.174c0,1.814-6.181,1.785-6.589,1.723
	c-0.879-0.137-1.88-0.139-2.682-0.25c-9.082-1.264-16.563-8.904-16.563-17.883c0-2.027,1.252-9.261,2.763-9.261
	C33.902,54.062,33.108,55.371,33.108,57.148L33.108,57.148z M48.868,91.594c5.89,0,10.749-0.91,15.75-3.908
	c3.22-1.932,2.91-2.098,5.046-3.729c0.854-0.652,1.446-1.379,2.161-2.227c3.877-4.611,6.023-8.512,7.007-14.928
	c1.646-10.737-3.449-21.248-8.303-30.342c-0.549-1.03-0.989-1.812-1.586-2.799c-0.594-0.98-1.022-1.79-1.623-2.765
	c-0.589-0.958-1.096-1.757-1.687-2.7l-2.584-3.916c-3.04-4.121-5.879-8.541-9.27-12.663c-1.473-1.789-2.038-3.212-3.775-3.212
	c-1.786,0-3.053,2.309-4.55,4.224c-5.07,6.49-8.296,11.346-12.641,18.067c-1.665,2.576-3.986,6.952-5.504,9.768
	c-0.298,0.554-0.44,1.05-0.699,1.576c-0.488,0.992-0.91,1.913-1.41,2.977c-2.805,5.971-5.18,14.877-4.068,21.508
	c1.015,6.053,3.477,11.801,7.871,16.174c0.394,0.393,0.744,0.791,1.156,1.119c0.508,0.404,0.654,0.572,1.122,0.99
	C35.493,88.586,43.031,91.594,48.868,91.594z"/>
</svg>
