<?xml version="1.0" encoding="utf-8"?>
<!-- Generator: Adobe Illustrator 16.0.0, SVG Export Plug-In . SVG Version: 6.00 Build 0)  -->
<!DOCTYPE svg PUBLIC "-//W3C//DTD SVG 1.1//EN" "http://www.w3.org/Graphics/SVG/1.1/DTD/svg11.dtd">
<svg version="1.1" id="Layer_1" xmlns="http://www.w3.org/2000/svg" xmlns:xlink="http://www.w3.org/1999/xlink" x="0px" y="0px"
	 width="100px" height="100px" viewBox="0 0 100 100" enable-background="new 0 0 100 100" xml:space="preserve">
<g>
	<path fill="#00A69A" d="M59.228,32.719c2.479,0.892,5.467,5.262,6.47,8.298c0.427,1.297,0.51,3.046,0.984,4.183
		c1.311,0.445,16.291,0.116,19.063,0.122l13.999,0.018c0.504-10.579-5.792-24.93-12.515-32.12l-2.118-2.132
		c-0.751-0.737-1.161-1.14-2.03-2.002c-1.065-1.061-6.216-4.938-7.475-5.24c-0.533,1.637-10.459,18.214-12.23,21.415
		C62.598,26.654,59.479,31.779,59.228,32.719z"/>
	<path fill="#00A69A" d="M0.235,45.321l33.189-0.024c0.583-4.447,1.66-7.185,4.488-10.341c0.633-0.705,1.988-1.941,2.856-2.273
		c-0.401-1.259-13.69-23.967-15.93-27.85c-0.275-0.478-0.403-0.652-0.693-0.979c-2.556,1.162-7.307,5.211-9.261,7.185
		C6.639,19.364-0.034,32.562,0.235,45.321z"/>
	<path fill="#00A69A" d="M26.11,89.963c1.672,1.422,8.023,3.712,10.657,4.395c8.696,2.256,17.581,2.518,26.323,0.048
		c2.682-0.756,8.959-2.855,10.803-4.442c-0.502-1.239-1.31-2.362-2.009-3.609c-1.654-2.947-14.005-24.526-14.587-25.044
		c-6.739,1.989-7.108,2.52-14.559-0.004L26.11,89.963z"/>
	<path fill="#00A69A" d="M38.631,44.939h2.762c0,0.858,0.147,7.398-0.09,8.081c-0.215,0.619,0,0.224-0.361,0.657
		c0.688,0.057,0.257,0.028,0.759,0.563c0.374,0.399,0.416,0.433,0.816,0.781c0.766,0.671,1.039,0.926,2.01,1.35l3.36-0.01V44.939
		h3.583V57.78l2.495-0.57l-0.03-12.271l7.379-0.042c-0.283-5.411-5.538-9.963-11.183-10.015C44,34.824,39.317,39.304,38.631,44.939z
		"/>
	<path fill="#00A69A" stroke="#00A69A" stroke-width="0.2016" stroke-miterlimit="2.6131" d="M53.969,57.21
		c2.753-1.363,4.229-2.354,5.639-4.591c0.73-1.162,2.854-6.074,1.709-7.723l-7.379,0.042L53.969,57.21z"/>
	<path fill="#00A69A" stroke="#00A69A" stroke-width="0.2016" stroke-miterlimit="2.6131" d="M44.529,56.371
		c0.819,1.166,5.129,1.613,6.944,1.409V44.939h-3.583v11.422L44.529,56.371z"/>
	<path fill="#00A69A" stroke="#00A69A" stroke-width="0.2016" stroke-miterlimit="2.6131" d="M40.943,53.677
		c0.36-0.432,0.146-0.036,0.361-0.657c0.237-0.683,0.09-7.223,0.09-8.081h-2.762c-0.512,0.896,0.025,3.622,0.333,4.663
		C39.519,51.487,40.197,52.239,40.943,53.677z"/>
</g>
</svg>
