<?xml version="1.0" encoding="utf-8"?>
<!-- Generator: Adobe Illustrator 16.0.0, SVG Export Plug-In . SVG Version: 6.00 Build 0)  -->
<!DOCTYPE svg PUBLIC "-//W3C//DTD SVG 1.1//EN" "http://www.w3.org/Graphics/SVG/1.1/DTD/svg11.dtd">
<svg version="1.1" id="Layer_1" xmlns="http://www.w3.org/2000/svg" xmlns:xlink="http://www.w3.org/1999/xlink" x="0px" y="0px"
	 width="100px" height="100px" viewBox="0 0 100 100" enable-background="new 0 0 100 100" xml:space="preserve">
<g>
	<path fill="#00A69A" d="M47.607,28.739c-0.787-0.103-2.599-0.943-3.545-1.258c-6.809-2.257-13.805-1.931-20.16,1.315
		c-6.402,3.271-10.664,9.532-12.403,16.56C7.901,59.89,15.337,79.46,23.49,89.647c5.32,6.65,13.76,12.159,23.14,9.54
		c1.027-0.286,2.94-1.225,3.842-1.007c0.406,0.101,1.192,0.485,1.674,0.644c0.576,0.189,1.345,0.39,1.934,0.545
		c4.048,1.059,8.691,0.579,12.359-1.031c2.352-1.031,4.318-2.329,5.943-3.722c0.994-0.851,1.47-1.354,2.458-2.284
		c0.823-0.771,1.503-1.738,2.282-2.632c2.621-3.013,5.291-7.966,7.078-12.229c6.007-14.336,8.723-34.353-2.344-45.206
		c-5.777-5.667-13.522-7.505-22.048-5.724c-1.314,0.275-2.671,0.628-3.859,1.051c-0.794,0.28-2.991,1.222-3.563,1.274
		c0.761-1.462,3.309-5.105,4.363-6.531c4.329-5.851,5.576-6.691,10.861-11.085c3.481-2.896,2.486-2.614-2.126-4.845
		c-3.446-1.669-5.275-3.201-7.201-0.064c-2.956,4.811-5.183,9.382-7.458,14.501L47.607,28.739z"/>
	<path fill="#00A69A" d="M30.317,0.148c-1.655,0.395-2.023,1.539-1.981,3.521c0.037,1.689,0.297,3.287,0.692,4.832
		c0.73,2.85,2.1,5.477,3.653,7.282l2.821,2.581c1.061,0.771,2.136,1.395,3.464,1.928c2.174,0.871,6.756,2.204,9.404,1.564
		c3.908-0.941,1.136-11.273-2.593-15.567c-1.508-1.737-3.342-3.371-6.278-4.549C37.404,0.897,32.816-0.45,30.317,0.148z"/>
</g>
</svg>
