<?xml version="1.0" encoding="utf-8"?>
<!-- Generator: Adobe Illustrator 16.0.0, SVG Export Plug-In . SVG Version: 6.00 Build 0)  -->
<!DOCTYPE svg PUBLIC "-//W3C//DTD SVG 1.1//EN" "http://www.w3.org/Graphics/SVG/1.1/DTD/svg11.dtd">
<svg version="1.1" id="Layer_1" xmlns="http://www.w3.org/2000/svg" xmlns:xlink="http://www.w3.org/1999/xlink" x="0px" y="0px"
	 width="100px" height="100px" viewBox="0 0 100 100" enable-background="new 0 0 100 100" xml:space="preserve">
<g>
	<path fill-rule="evenodd" clip-rule="evenodd" fill="#00A69A" d="M40.07,0.872c-3.22,1.066-3.104,2.49-3.084,6.391l0.003,86.246
		c-0.029,8.41,1.518,7.344,11.72,7.344c4.956,0,36.173,0.461,38.282-0.316c3.82-1.409,2.602-10.06,2.602-16.33L89.596,7.69
		c0.043-8.858-3.466-7.025-11.72-7.025C72.836,0.665,42.234,0.155,40.07,0.872z"/>
	<path fill-rule="evenodd" clip-rule="evenodd" fill="#00A69A" d="M8.976,3.505v94.51c1.729,2.254,1.444,2.82,5.479,2.855
		l23.214-0.124c-2.023-3.195-0.962-2.221-1.82-6.215c-24.722,0-21.747,3.572-21.747-18.356c0-13.284,0-26.568,0-39.854l21.947,0.012
		l-0.174-22.542l-6.944-0.022c0.104,3.774-0.909,14.43,0.175,17.891l-2.508,0.057c1.107-5.283-0.381-13.521,0.286-17.904
		l-10.59-0.043c-0.12,3.707-0.714,14.078,0.183,17.913l-2.355,0.025c-0.064-3.567-0.419-21.179,0.229-23.332
		c0.994-3.309,5.142-2.61,8.998-2.609c15.137,0.006,11.982,0.828,13.06-2.812c0.406-1.371,0.611-1.32,1.293-2.305
		c-5.336,0.071-10.704,0.016-16.043,0.016C12.418,0.665,11.503-0.434,8.976,3.505z"/>
	<path fill-rule="evenodd" clip-rule="evenodd" fill="#FFFFFF" d="M61.205,26.935c-0.838-1.173-1.275-1.983-3.06-1.795
		c-0.058,2.628,2.457,2.482,3.161,4.96c-0.748,0.855-1.247,1.064-2.457,1.207c-0.291-0.653-0.579-1.581-0.815-2.517
		c-0.723-2.87-0.47-2.097-1.294-2.653c-1.393,0.984-0.621,1.596-0.207,3.399c-1.832-0.267-0.95-1.257-2.727-0.281
		c0.222,1.318,1.058,1.312,1.784,2.197c-1.841,0.378-2.545,0.005-2.994,1.606c1.502,1.146,3.362-0.551,5.826-0.374l-0.227,2.729
		c-2.103,0.238-3.523-1.209-5.641-0.771c0.293,2.695,0.759,0.768,2.799,2.222c-1.477,1.203-1.268,0.305-1.613,2.252l2.82-0.604
		l-0.627,3.378c1.781-0.318,1.692,0.006,2.67-5.175c1.473,0.17,1.739,0.45,2.76,0.969c-0.421,3.458-3.772,2.819-3.057,5.253
		c1.315,0.176,1.936-0.911,2.688-1.795c0.947,1.745-0.538,1.465,1.239,2.56c0.795-0.681,0.477-0.226,0.865-2.471
		c0.304,0.28,0.894,0.973,1.207,1.214c1.01,0.776,0.748,0.818,1.688,0.265c0.752-1.353-2.056-2.743-3.088-4.577l2.093-1.483
		c1.172,0.904,0.904,1.09,1.33,2.897c0.433,1.836,0.178,2.075,1.809,2.313c0.521-1.665-0.284-1.731-0.225-3.521
		c0.916,0.532,1.613,0.993,2.638,0.584c-0.198-2.096,0.074-0.524-1.584-2.059c1.562-1.045,2.037-0.189,2.823-1.69
		c-2.098-2.458-6.69,3.609-5.906-2.268c2.746-1.024,3.935,1.722,5.936,0.214c-0.472-1.851-0.968-0.789-3.039-1.927
		c1.288-0.95,1.807-0.697,1.625-2.039c-1.189-0.424-1.274-0.069-2.677,0.577c0.306-1.214,0.795-2.227,0.423-3.349
		c-2.965-0.076-0.666,2.214-2.959,4.938l-2.34-1.045c0.704-2.754,3.404-3.088,3.34-4.895c-0.094-0.041-0.256-0.174-0.297-0.071
		c-0.039,0.099-0.234-0.052-0.289-0.045c-0.813,0.098-0.179-0.178-0.795,0.188c-0.659,0.393-0.801,0.892-1.125,1.47
		c-0.783-0.845-0.58-2.065-1.801-2.571C61.036,25.486,61.466,25.209,61.205,26.935z"/>
</g>
</svg>
